<mxfile host="app.diagrams.net" modified="2023-05-30T08:01:39.390Z" agent="Mozilla/5.0 (Windows NT 10.0; Win64; x64; rv:109.0) Gecko/20100101 Firefox/113.0" etag="gNrqqZlIVvo3tsB8QI2D" version="21.3.5" type="github">
  <diagram name="Page-1" id="GUL1_m-VdLgeRrm2SDWP">
    <mxGraphModel dx="1909" dy="2198" grid="1" gridSize="10" guides="1" tooltips="1" connect="1" arrows="1" fold="1" page="1" pageScale="1" pageWidth="827" pageHeight="1169" math="0" shadow="0">
      <root>
        <mxCell id="0" />
        <mxCell id="1" parent="0" />
        <mxCell id="iZhVbwkQds1wXp1GMCVx-3" style="edgeStyle=orthogonalEdgeStyle;rounded=0;orthogonalLoop=1;jettySize=auto;html=1;" parent="1" source="iZhVbwkQds1wXp1GMCVx-1" edge="1">
          <mxGeometry relative="1" as="geometry">
            <mxPoint x="370" y="270" as="targetPoint" />
          </mxGeometry>
        </mxCell>
        <mxCell id="iZhVbwkQds1wXp1GMCVx-1" value="Choix des voies" style="rounded=0;whiteSpace=wrap;html=1;" parent="1" vertex="1">
          <mxGeometry x="320" y="170" width="100" height="30" as="geometry" />
        </mxCell>
        <mxCell id="iZhVbwkQds1wXp1GMCVx-7" value="voie 1 " style="rounded=0;whiteSpace=wrap;html=1;" parent="1" vertex="1">
          <mxGeometry x="230" y="300" width="80" height="30" as="geometry" />
        </mxCell>
        <mxCell id="iZhVbwkQds1wXp1GMCVx-8" value="voie 2 " style="rounded=0;whiteSpace=wrap;html=1;" parent="1" vertex="1">
          <mxGeometry x="330" y="300" width="80" height="30" as="geometry" />
        </mxCell>
        <mxCell id="iZhVbwkQds1wXp1GMCVx-9" value="&lt;div&gt;voie 3&lt;/div&gt;" style="rounded=0;whiteSpace=wrap;html=1;" parent="1" vertex="1">
          <mxGeometry x="430" y="300" width="80" height="30" as="geometry" />
        </mxCell>
        <mxCell id="iZhVbwkQds1wXp1GMCVx-11" value="entrée gauge" style="rounded=0;whiteSpace=wrap;html=1;" parent="1" vertex="1">
          <mxGeometry x="324" y="340" width="90" height="50" as="geometry" />
        </mxCell>
        <mxCell id="iZhVbwkQds1wXp1GMCVx-12" value="entrée analogique" style="rounded=0;whiteSpace=wrap;html=1;" parent="1" vertex="1">
          <mxGeometry x="210" y="340" width="90" height="50" as="geometry" />
        </mxCell>
        <mxCell id="iZhVbwkQds1wXp1GMCVx-13" value="consigne analogique" style="rounded=0;whiteSpace=wrap;html=1;" parent="1" vertex="1">
          <mxGeometry x="100" y="340" width="90" height="50" as="geometry" />
        </mxCell>
        <mxCell id="iZhVbwkQds1wXp1GMCVx-15" value="entrée +-10V " style="rounded=0;whiteSpace=wrap;html=1;" parent="1" vertex="1">
          <mxGeometry x="155" y="420" width="90" height="50" as="geometry" />
        </mxCell>
        <mxCell id="iZhVbwkQds1wXp1GMCVx-16" value="sortie DAC" style="rounded=0;whiteSpace=wrap;html=1;" parent="1" vertex="1">
          <mxGeometry x="440" y="340" width="90" height="50" as="geometry" />
        </mxCell>
        <mxCell id="iZhVbwkQds1wXp1GMCVx-18" value="entrée -1/7.5V " style="rounded=0;whiteSpace=wrap;html=1;" parent="1" vertex="1">
          <mxGeometry x="265" y="420" width="90" height="50" as="geometry" />
        </mxCell>
        <mxCell id="iZhVbwkQds1wXp1GMCVx-22" style="edgeStyle=orthogonalEdgeStyle;rounded=0;orthogonalLoop=1;jettySize=auto;html=1;exitX=0.5;exitY=1;exitDx=0;exitDy=0;" parent="1" source="iZhVbwkQds1wXp1GMCVx-19" target="iZhVbwkQds1wXp1GMCVx-20" edge="1">
          <mxGeometry relative="1" as="geometry" />
        </mxCell>
        <mxCell id="iZhVbwkQds1wXp1GMCVx-19" value="Choix de la calibration" style="whiteSpace=wrap;html=1;" parent="1" vertex="1">
          <mxGeometry x="125" y="610" width="120" height="60" as="geometry" />
        </mxCell>
        <mxCell id="iZhVbwkQds1wXp1GMCVx-23" value="" style="edgeStyle=orthogonalEdgeStyle;rounded=0;orthogonalLoop=1;jettySize=auto;html=1;" parent="1" source="iZhVbwkQds1wXp1GMCVx-20" target="iZhVbwkQds1wXp1GMCVx-21" edge="1">
          <mxGeometry relative="1" as="geometry" />
        </mxCell>
        <mxCell id="iZhVbwkQds1wXp1GMCVx-20" value="Calibration" style="whiteSpace=wrap;html=1;" parent="1" vertex="1">
          <mxGeometry x="125" y="690" width="120" height="60" as="geometry" />
        </mxCell>
        <mxCell id="iZhVbwkQds1wXp1GMCVx-21" value="sauvegarde" style="whiteSpace=wrap;html=1;" parent="1" vertex="1">
          <mxGeometry x="125" y="770" width="120" height="60" as="geometry" />
        </mxCell>
        <mxCell id="iZhVbwkQds1wXp1GMCVx-27" style="edgeStyle=orthogonalEdgeStyle;rounded=0;orthogonalLoop=1;jettySize=auto;html=1;" parent="1" source="iZhVbwkQds1wXp1GMCVx-25" target="iZhVbwkQds1wXp1GMCVx-19" edge="1">
          <mxGeometry relative="1" as="geometry" />
        </mxCell>
        <mxCell id="iZhVbwkQds1wXp1GMCVx-25" value="Montre les gain et offset de chaque voies" style="whiteSpace=wrap;html=1;" parent="1" vertex="1">
          <mxGeometry x="125" y="525" width="120" height="60" as="geometry" />
        </mxCell>
        <mxCell id="iZhVbwkQds1wXp1GMCVx-31" value="" style="edgeStyle=orthogonalEdgeStyle;rounded=0;orthogonalLoop=1;jettySize=auto;html=1;" parent="1" source="iZhVbwkQds1wXp1GMCVx-29" target="iZhVbwkQds1wXp1GMCVx-30" edge="1">
          <mxGeometry relative="1" as="geometry" />
        </mxCell>
        <mxCell id="iZhVbwkQds1wXp1GMCVx-29" value="mesure de la valeur avec moyenne sur 10 points" style="whiteSpace=wrap;html=1;" parent="1" vertex="1">
          <mxGeometry x="580" y="560" width="120" height="60" as="geometry" />
        </mxCell>
        <mxCell id="iZhVbwkQds1wXp1GMCVx-35" style="edgeStyle=orthogonalEdgeStyle;rounded=0;orthogonalLoop=1;jettySize=auto;html=1;entryX=1;entryY=0.5;entryDx=0;entryDy=0;" parent="1" source="iZhVbwkQds1wXp1GMCVx-30" target="iZhVbwkQds1wXp1GMCVx-29" edge="1">
          <mxGeometry relative="1" as="geometry">
            <Array as="points">
              <mxPoint x="720" y="680" />
              <mxPoint x="720" y="590" />
            </Array>
          </mxGeometry>
        </mxCell>
        <mxCell id="iZhVbwkQds1wXp1GMCVx-36" style="edgeStyle=orthogonalEdgeStyle;rounded=0;orthogonalLoop=1;jettySize=auto;html=1;entryX=1;entryY=0.5;entryDx=0;entryDy=0;" parent="1" source="iZhVbwkQds1wXp1GMCVx-30" target="iZhVbwkQds1wXp1GMCVx-32" edge="1">
          <mxGeometry relative="1" as="geometry">
            <Array as="points">
              <mxPoint x="640" y="740" />
              <mxPoint x="770" y="740" />
              <mxPoint x="770" y="470" />
            </Array>
          </mxGeometry>
        </mxCell>
        <mxCell id="iZhVbwkQds1wXp1GMCVx-38" style="edgeStyle=orthogonalEdgeStyle;rounded=0;orthogonalLoop=1;jettySize=auto;html=1;entryX=0.5;entryY=0;entryDx=0;entryDy=0;" parent="1" source="iZhVbwkQds1wXp1GMCVx-30" target="iZhVbwkQds1wXp1GMCVx-37" edge="1">
          <mxGeometry relative="1" as="geometry" />
        </mxCell>
        <mxCell id="iZhVbwkQds1wXp1GMCVx-30" value="Validation de la mesure " style="rhombus;whiteSpace=wrap;html=1;" parent="1" vertex="1">
          <mxGeometry x="580" y="640" width="120" height="80" as="geometry" />
        </mxCell>
        <mxCell id="iZhVbwkQds1wXp1GMCVx-34" value="" style="edgeStyle=orthogonalEdgeStyle;rounded=0;orthogonalLoop=1;jettySize=auto;html=1;" parent="1" source="iZhVbwkQds1wXp1GMCVx-32" target="iZhVbwkQds1wXp1GMCVx-29" edge="1">
          <mxGeometry relative="1" as="geometry" />
        </mxCell>
        <mxCell id="iZhVbwkQds1wXp1GMCVx-32" value="tant que&lt;br&gt; les 10 points ne &lt;br&gt;sont pas pris" style="rhombus;whiteSpace=wrap;html=1;" parent="1" vertex="1">
          <mxGeometry x="595" y="430" width="90" height="80" as="geometry" />
        </mxCell>
        <mxCell id="iZhVbwkQds1wXp1GMCVx-40" value="" style="edgeStyle=orthogonalEdgeStyle;rounded=0;orthogonalLoop=1;jettySize=auto;html=1;" parent="1" source="iZhVbwkQds1wXp1GMCVx-37" target="iZhVbwkQds1wXp1GMCVx-39" edge="1">
          <mxGeometry relative="1" as="geometry" />
        </mxCell>
        <mxCell id="iZhVbwkQds1wXp1GMCVx-37" value="&lt;div&gt;fonction de calibration&lt;/div&gt;" style="whiteSpace=wrap;html=1;" parent="1" vertex="1">
          <mxGeometry x="580" y="770" width="120" height="60" as="geometry" />
        </mxCell>
        <mxCell id="iZhVbwkQds1wXp1GMCVx-42" style="edgeStyle=orthogonalEdgeStyle;rounded=0;orthogonalLoop=1;jettySize=auto;html=1;entryX=0.5;entryY=0;entryDx=0;entryDy=0;" parent="1" source="iZhVbwkQds1wXp1GMCVx-39" target="iZhVbwkQds1wXp1GMCVx-32" edge="1">
          <mxGeometry relative="1" as="geometry">
            <Array as="points">
              <mxPoint x="540" y="915" />
              <mxPoint x="540" y="410" />
              <mxPoint x="640" y="410" />
            </Array>
          </mxGeometry>
        </mxCell>
        <mxCell id="iZhVbwkQds1wXp1GMCVx-45" value="" style="edgeStyle=orthogonalEdgeStyle;rounded=0;orthogonalLoop=1;jettySize=auto;html=1;" parent="1" source="iZhVbwkQds1wXp1GMCVx-39" target="iZhVbwkQds1wXp1GMCVx-43" edge="1">
          <mxGeometry relative="1" as="geometry" />
        </mxCell>
        <mxCell id="iZhVbwkQds1wXp1GMCVx-39" value="validation&lt;br&gt;des gains&lt;br&gt;et offset calculés" style="rhombus;whiteSpace=wrap;html=1;" parent="1" vertex="1">
          <mxGeometry x="580" y="850" width="120" height="130" as="geometry" />
        </mxCell>
        <mxCell id="iZhVbwkQds1wXp1GMCVx-43" value="sauvegarde" style="whiteSpace=wrap;html=1;" parent="1" vertex="1">
          <mxGeometry x="580" y="1000" width="120" height="60" as="geometry" />
        </mxCell>
        <mxCell id="lUho-2JTqAUWkpTvIMWX-1" value="affichage &lt;br&gt;valeurs des gain/offset" style="rounded=0;whiteSpace=wrap;html=1;" parent="1" vertex="1">
          <mxGeometry x="1101" y="-10" width="140" height="60" as="geometry" />
        </mxCell>
        <mxCell id="lUho-2JTqAUWkpTvIMWX-20" value="" style="edgeStyle=orthogonalEdgeStyle;rounded=0;orthogonalLoop=1;jettySize=auto;html=1;" parent="1" source="lUho-2JTqAUWkpTvIMWX-2" target="lUho-2JTqAUWkpTvIMWX-4" edge="1">
          <mxGeometry relative="1" as="geometry" />
        </mxCell>
        <mxCell id="lUho-2JTqAUWkpTvIMWX-2" value="Choix du numéro de voie" style="rounded=0;whiteSpace=wrap;html=1;" parent="1" vertex="1">
          <mxGeometry x="910" y="110" width="130" height="60" as="geometry" />
        </mxCell>
        <mxCell id="lUho-2JTqAUWkpTvIMWX-22" value="" style="edgeStyle=orthogonalEdgeStyle;rounded=0;orthogonalLoop=1;jettySize=auto;html=1;" parent="1" source="lUho-2JTqAUWkpTvIMWX-4" target="lUho-2JTqAUWkpTvIMWX-6" edge="1">
          <mxGeometry relative="1" as="geometry" />
        </mxCell>
        <mxCell id="lUho-2JTqAUWkpTvIMWX-27" style="edgeStyle=orthogonalEdgeStyle;rounded=0;orthogonalLoop=1;jettySize=auto;html=1;" parent="1" source="lUho-2JTqAUWkpTvIMWX-4" target="lUho-2JTqAUWkpTvIMWX-18" edge="1">
          <mxGeometry relative="1" as="geometry" />
        </mxCell>
        <mxCell id="lUho-2JTqAUWkpTvIMWX-31" style="edgeStyle=orthogonalEdgeStyle;rounded=0;orthogonalLoop=1;jettySize=auto;html=1;entryX=0.5;entryY=0;entryDx=0;entryDy=0;" parent="1" source="lUho-2JTqAUWkpTvIMWX-4" target="lUho-2JTqAUWkpTvIMWX-2" edge="1">
          <mxGeometry relative="1" as="geometry">
            <Array as="points">
              <mxPoint x="850" y="230" />
              <mxPoint x="850" y="90" />
              <mxPoint x="975" y="90" />
            </Array>
          </mxGeometry>
        </mxCell>
        <mxCell id="lUho-2JTqAUWkpTvIMWX-4" value="Choix Entrée/Sortie" style="rounded=0;whiteSpace=wrap;html=1;" parent="1" vertex="1">
          <mxGeometry x="910" y="200" width="130" height="60" as="geometry" />
        </mxCell>
        <mxCell id="lUho-2JTqAUWkpTvIMWX-28" style="edgeStyle=orthogonalEdgeStyle;rounded=0;orthogonalLoop=1;jettySize=auto;html=1;entryX=0.5;entryY=0;entryDx=0;entryDy=0;" parent="1" source="lUho-2JTqAUWkpTvIMWX-5" target="lUho-2JTqAUWkpTvIMWX-18" edge="1">
          <mxGeometry relative="1" as="geometry">
            <Array as="points">
              <mxPoint x="975" y="460" />
              <mxPoint x="1161" y="460" />
            </Array>
          </mxGeometry>
        </mxCell>
        <mxCell id="lUho-2JTqAUWkpTvIMWX-29" style="edgeStyle=orthogonalEdgeStyle;rounded=0;orthogonalLoop=1;jettySize=auto;html=1;entryX=0.5;entryY=0;entryDx=0;entryDy=0;" parent="1" source="lUho-2JTqAUWkpTvIMWX-5" target="lUho-2JTqAUWkpTvIMWX-2" edge="1">
          <mxGeometry relative="1" as="geometry">
            <Array as="points">
              <mxPoint x="850" y="420" />
              <mxPoint x="850" y="90" />
              <mxPoint x="975" y="90" />
            </Array>
          </mxGeometry>
        </mxCell>
        <mxCell id="lUho-2JTqAUWkpTvIMWX-5" value="Choix entrée analogique avec offset 3.25 V" style="rounded=0;whiteSpace=wrap;html=1;" parent="1" vertex="1">
          <mxGeometry x="910" y="390" width="130" height="60" as="geometry" />
        </mxCell>
        <mxCell id="lUho-2JTqAUWkpTvIMWX-23" value="" style="edgeStyle=orthogonalEdgeStyle;rounded=0;orthogonalLoop=1;jettySize=auto;html=1;" parent="1" source="lUho-2JTqAUWkpTvIMWX-6" target="lUho-2JTqAUWkpTvIMWX-5" edge="1">
          <mxGeometry relative="1" as="geometry" />
        </mxCell>
        <mxCell id="lUho-2JTqAUWkpTvIMWX-26" style="edgeStyle=orthogonalEdgeStyle;rounded=0;orthogonalLoop=1;jettySize=auto;html=1;" parent="1" source="lUho-2JTqAUWkpTvIMWX-6" target="lUho-2JTqAUWkpTvIMWX-18" edge="1">
          <mxGeometry relative="1" as="geometry" />
        </mxCell>
        <mxCell id="lUho-2JTqAUWkpTvIMWX-30" style="edgeStyle=orthogonalEdgeStyle;rounded=0;orthogonalLoop=1;jettySize=auto;html=1;exitX=0;exitY=0.5;exitDx=0;exitDy=0;entryX=0.5;entryY=0;entryDx=0;entryDy=0;" parent="1" source="lUho-2JTqAUWkpTvIMWX-6" target="lUho-2JTqAUWkpTvIMWX-2" edge="1">
          <mxGeometry relative="1" as="geometry">
            <Array as="points">
              <mxPoint x="850" y="330" />
              <mxPoint x="850" y="90" />
              <mxPoint x="975" y="90" />
            </Array>
          </mxGeometry>
        </mxCell>
        <mxCell id="lUho-2JTqAUWkpTvIMWX-6" value="Choix entrée consigne / capteur" style="rounded=0;whiteSpace=wrap;html=1;" parent="1" vertex="1">
          <mxGeometry x="910" y="300" width="130" height="60" as="geometry" />
        </mxCell>
        <mxCell id="lUho-2JTqAUWkpTvIMWX-18" value="Message fin de calibration" style="rounded=0;whiteSpace=wrap;html=1;" parent="1" vertex="1">
          <mxGeometry x="1101" y="480" width="120" height="60" as="geometry" />
        </mxCell>
        <mxCell id="lUho-2JTqAUWkpTvIMWX-32" value="retour" style="text;html=1;align=center;verticalAlign=middle;resizable=0;points=[];autosize=1;strokeColor=none;fillColor=none;" parent="1" vertex="1">
          <mxGeometry x="855" y="178" width="50" height="30" as="geometry" />
        </mxCell>
        <mxCell id="lUho-2JTqAUWkpTvIMWX-34" value="&lt;div&gt;retour&lt;/div&gt;&lt;div&gt;&lt;br&gt;&lt;/div&gt;" style="text;html=1;align=center;verticalAlign=middle;resizable=0;points=[];autosize=1;strokeColor=none;fillColor=none;" parent="1" vertex="1">
          <mxGeometry x="855" y="290" width="50" height="40" as="geometry" />
        </mxCell>
        <mxCell id="lUho-2JTqAUWkpTvIMWX-35" value="retour" style="text;html=1;align=center;verticalAlign=middle;resizable=0;points=[];autosize=1;strokeColor=none;fillColor=none;" parent="1" vertex="1">
          <mxGeometry x="855" y="378" width="50" height="30" as="geometry" />
        </mxCell>
        <mxCell id="lUho-2JTqAUWkpTvIMWX-36" value="Sortie" style="text;html=1;align=center;verticalAlign=middle;resizable=0;points=[];autosize=1;strokeColor=none;fillColor=none;" parent="1" vertex="1">
          <mxGeometry x="1045" y="198" width="50" height="30" as="geometry" />
        </mxCell>
        <mxCell id="lUho-2JTqAUWkpTvIMWX-37" value="Consigne" style="text;html=1;align=center;verticalAlign=middle;resizable=0;points=[];autosize=1;strokeColor=none;fillColor=none;" parent="1" vertex="1">
          <mxGeometry x="1045" y="295" width="70" height="30" as="geometry" />
        </mxCell>
        <mxCell id="lUho-2JTqAUWkpTvIMWX-42" value="" style="edgeStyle=orthogonalEdgeStyle;rounded=0;orthogonalLoop=1;jettySize=auto;html=1;" parent="1" target="lUho-2JTqAUWkpTvIMWX-41" edge="1">
          <mxGeometry relative="1" as="geometry">
            <mxPoint x="1161" y="540" as="sourcePoint" />
          </mxGeometry>
        </mxCell>
        <mxCell id="lUho-2JTqAUWkpTvIMWX-65" style="edgeStyle=orthogonalEdgeStyle;rounded=0;orthogonalLoop=1;jettySize=auto;html=1;entryX=0.5;entryY=0;entryDx=0;entryDy=0;" parent="1" source="lUho-2JTqAUWkpTvIMWX-41" target="lUho-2JTqAUWkpTvIMWX-59" edge="1">
          <mxGeometry relative="1" as="geometry" />
        </mxCell>
        <mxCell id="lUho-2JTqAUWkpTvIMWX-75" style="edgeStyle=orthogonalEdgeStyle;rounded=0;orthogonalLoop=1;jettySize=auto;html=1;entryX=0.5;entryY=0;entryDx=0;entryDy=0;" parent="1" source="lUho-2JTqAUWkpTvIMWX-41" target="lUho-2JTqAUWkpTvIMWX-70" edge="1">
          <mxGeometry relative="1" as="geometry" />
        </mxCell>
        <mxCell id="lUho-2JTqAUWkpTvIMWX-41" value="Attente de l&#39;utilisateur d’acquisition de la valeurs " style="whiteSpace=wrap;html=1;" parent="1" vertex="1">
          <mxGeometry x="1101" y="570" width="120" height="60" as="geometry" />
        </mxCell>
        <mxCell id="lUho-2JTqAUWkpTvIMWX-50" style="edgeStyle=orthogonalEdgeStyle;rounded=0;orthogonalLoop=1;jettySize=auto;html=1;entryX=1;entryY=0.5;entryDx=0;entryDy=0;" parent="1" source="lUho-2JTqAUWkpTvIMWX-43" target="lUho-2JTqAUWkpTvIMWX-41" edge="1">
          <mxGeometry relative="1" as="geometry">
            <Array as="points">
              <mxPoint x="1340" y="890" />
              <mxPoint x="1340" y="600" />
            </Array>
          </mxGeometry>
        </mxCell>
        <mxCell id="lUho-2JTqAUWkpTvIMWX-49" style="edgeStyle=orthogonalEdgeStyle;rounded=0;orthogonalLoop=1;jettySize=auto;html=1;entryX=1;entryY=0.5;entryDx=0;entryDy=0;" parent="1" source="lUho-2JTqAUWkpTvIMWX-45" target="lUho-2JTqAUWkpTvIMWX-41" edge="1">
          <mxGeometry relative="1" as="geometry">
            <Array as="points">
              <mxPoint x="1360" y="980" />
              <mxPoint x="1360" y="600" />
            </Array>
          </mxGeometry>
        </mxCell>
        <mxCell id="lUho-2JTqAUWkpTvIMWX-55" style="edgeStyle=orthogonalEdgeStyle;rounded=0;orthogonalLoop=1;jettySize=auto;html=1;entryX=0.5;entryY=0;entryDx=0;entryDy=0;" parent="1" source="lUho-2JTqAUWkpTvIMWX-52" target="lUho-2JTqAUWkpTvIMWX-2" edge="1">
          <mxGeometry relative="1" as="geometry">
            <Array as="points">
              <mxPoint x="1380" y="1080" />
              <mxPoint x="1380" y="90" />
              <mxPoint x="975" y="90" />
            </Array>
          </mxGeometry>
        </mxCell>
        <mxCell id="lUho-2JTqAUWkpTvIMWX-79" style="edgeStyle=orthogonalEdgeStyle;rounded=0;orthogonalLoop=1;jettySize=auto;html=1;" parent="1" source="lUho-2JTqAUWkpTvIMWX-59" target="lUho-2JTqAUWkpTvIMWX-43" edge="1">
          <mxGeometry relative="1" as="geometry">
            <Array as="points">
              <mxPoint x="1230" y="840" />
              <mxPoint x="1161" y="840" />
            </Array>
          </mxGeometry>
        </mxCell>
        <mxCell id="lUho-2JTqAUWkpTvIMWX-59" value="entrer la référence de tension" style="whiteSpace=wrap;html=1;" parent="1" vertex="1">
          <mxGeometry x="1170" y="670" width="120" height="60" as="geometry" />
        </mxCell>
        <mxCell id="lUho-2JTqAUWkpTvIMWX-66" value="Si type sortie" style="text;html=1;align=center;verticalAlign=middle;resizable=0;points=[];autosize=1;strokeColor=none;fillColor=none;" parent="1" vertex="1">
          <mxGeometry x="1011" y="620" width="90" height="30" as="geometry" />
        </mxCell>
        <mxCell id="lUho-2JTqAUWkpTvIMWX-67" value="Si type entrée" style="text;html=1;align=center;verticalAlign=middle;resizable=0;points=[];autosize=1;strokeColor=none;fillColor=none;" parent="1" vertex="1">
          <mxGeometry x="1220" y="625" width="90" height="30" as="geometry" />
        </mxCell>
        <mxCell id="lUho-2JTqAUWkpTvIMWX-74" value="" style="edgeStyle=orthogonalEdgeStyle;rounded=0;orthogonalLoop=1;jettySize=auto;html=1;" parent="1" source="lUho-2JTqAUWkpTvIMWX-70" target="lUho-2JTqAUWkpTvIMWX-56" edge="1">
          <mxGeometry relative="1" as="geometry" />
        </mxCell>
        <mxCell id="lUho-2JTqAUWkpTvIMWX-70" value="&lt;div&gt;Tension en sortie&lt;/div&gt;&lt;div&gt;DAC&lt;br&gt; &lt;/div&gt;" style="whiteSpace=wrap;html=1;" parent="1" vertex="1">
          <mxGeometry x="1020" y="670" width="120" height="60" as="geometry" />
        </mxCell>
        <mxCell id="lUho-2JTqAUWkpTvIMWX-78" style="edgeStyle=orthogonalEdgeStyle;rounded=0;orthogonalLoop=1;jettySize=auto;html=1;entryX=0.5;entryY=0;entryDx=0;entryDy=0;" parent="1" source="lUho-2JTqAUWkpTvIMWX-56" target="lUho-2JTqAUWkpTvIMWX-43" edge="1">
          <mxGeometry relative="1" as="geometry" />
        </mxCell>
        <mxCell id="lUho-2JTqAUWkpTvIMWX-56" value="&lt;div&gt;Entrer la valeur mesurée &lt;br&gt;&lt;/div&gt;&lt;div&gt;sur le DAC&lt;br&gt;&lt;/div&gt;" style="whiteSpace=wrap;html=1;" parent="1" vertex="1">
          <mxGeometry x="1020" y="758" width="120" height="60" as="geometry" />
        </mxCell>
        <mxCell id="lUho-2JTqAUWkpTvIMWX-52" value="Sauvegarde dans la mémoire" style="whiteSpace=wrap;html=1;" parent="1" vertex="1">
          <mxGeometry x="1101" y="1050" width="120" height="60" as="geometry" />
        </mxCell>
        <mxCell id="lUho-2JTqAUWkpTvIMWX-43" value="Visualisation de la valeurs" style="whiteSpace=wrap;html=1;movable=1;resizable=1;rotatable=1;deletable=1;editable=1;locked=0;connectable=1;" parent="1" vertex="1">
          <mxGeometry x="1101" y="860" width="120" height="60" as="geometry" />
        </mxCell>
        <mxCell id="lUho-2JTqAUWkpTvIMWX-45" value="Calcule du gain et offset " style="whiteSpace=wrap;html=1;movable=1;resizable=1;rotatable=1;deletable=1;editable=1;locked=0;connectable=1;" parent="1" vertex="1">
          <mxGeometry x="1101" y="950" width="120" height="60" as="geometry" />
        </mxCell>
        <mxCell id="lUho-2JTqAUWkpTvIMWX-48" value="" style="edgeStyle=orthogonalEdgeStyle;rounded=0;orthogonalLoop=1;jettySize=auto;html=1;movable=1;resizable=1;rotatable=1;deletable=1;editable=1;locked=0;connectable=1;" parent="1" source="lUho-2JTqAUWkpTvIMWX-43" target="lUho-2JTqAUWkpTvIMWX-45" edge="1">
          <mxGeometry relative="1" as="geometry" />
        </mxCell>
        <mxCell id="lUho-2JTqAUWkpTvIMWX-47" value="Pour 5 valeurs " style="text;html=1;align=center;verticalAlign=middle;resizable=1;points=[];autosize=1;strokeColor=none;fillColor=none;movable=1;rotatable=1;deletable=1;editable=1;locked=0;connectable=1;" parent="1" vertex="1">
          <mxGeometry x="1225" y="860" width="100" height="30" as="geometry" />
        </mxCell>
        <mxCell id="lUho-2JTqAUWkpTvIMWX-51" value="Si il est pas bon" style="text;html=1;align=center;verticalAlign=middle;resizable=1;points=[];autosize=1;strokeColor=none;fillColor=none;movable=1;rotatable=1;deletable=1;editable=1;locked=0;connectable=1;" parent="1" vertex="1">
          <mxGeometry x="1230" y="950" width="110" height="30" as="geometry" />
        </mxCell>
        <mxCell id="lUho-2JTqAUWkpTvIMWX-53" value="" style="edgeStyle=orthogonalEdgeStyle;rounded=0;orthogonalLoop=1;jettySize=auto;html=1;movable=1;resizable=1;rotatable=1;deletable=1;editable=1;locked=0;connectable=1;" parent="1" source="lUho-2JTqAUWkpTvIMWX-45" target="lUho-2JTqAUWkpTvIMWX-52" edge="1">
          <mxGeometry relative="1" as="geometry" />
        </mxCell>
        <mxCell id="lUho-2JTqAUWkpTvIMWX-62" value="retour menu" style="text;html=1;align=center;verticalAlign=middle;resizable=0;points=[];autosize=1;strokeColor=none;fillColor=none;" parent="1" vertex="1">
          <mxGeometry x="1225" y="1048" width="90" height="30" as="geometry" />
        </mxCell>
        <mxCell id="WxlTKopZVUvemMj0G25d-1" value="tension d&#39;offset" style="text;html=1;align=center;verticalAlign=middle;resizable=0;points=[];autosize=1;strokeColor=none;fillColor=none;" vertex="1" parent="1">
          <mxGeometry x="1050" y="428" width="100" height="30" as="geometry" />
        </mxCell>
      </root>
    </mxGraphModel>
  </diagram>
</mxfile>
